<svg width="158" height="32" viewBox="0 0 158 32" fill="none" xmlns="http://www.w3.org/2000/svg">
    <path
        d="M41.9863 23.126C41.1103 23.126 40.3183 22.976 39.6103 22.676C38.9143 22.376 38.3623 21.944 37.9543 21.38C37.5463 20.816 37.3363 20.15 37.3243 19.382H40.0243C40.0603 19.898 40.2403 20.306 40.5643 20.606C40.9003 20.906 41.3563 21.056 41.9323 21.056C42.5203 21.056 42.9823 20.918 43.3183 20.642C43.6543 20.354 43.8223 19.982 43.8223 19.526C43.8223 19.154 43.7083 18.848 43.4803 18.608C43.2523 18.368 42.9643 18.182 42.6163 18.05C42.2803 17.906 41.8123 17.75 41.2123 17.582C40.3963 17.342 39.7303 17.108 39.2143 16.88C38.7103 16.64 38.2723 16.286 37.9003 15.818C37.5403 15.338 37.3603 14.702 37.3603 13.91C37.3603 13.166 37.5463 12.518 37.9183 11.966C38.2903 11.414 38.8123 10.994 39.4843 10.706C40.1563 10.406 40.9243 10.256 41.7883 10.256C43.0843 10.256 44.1343 10.574 44.9383 11.21C45.7543 11.834 46.2043 12.71 46.2883 13.838H43.5163C43.4923 13.406 43.3063 13.052 42.9583 12.776C42.6223 12.488 42.1723 12.344 41.6083 12.344C41.1163 12.344 40.7203 12.47 40.4203 12.722C40.1323 12.974 39.9883 13.34 39.9883 13.82C39.9883 14.156 40.0963 14.438 40.3123 14.666C40.5403 14.882 40.8163 15.062 41.1403 15.206C41.4763 15.338 41.9443 15.494 42.5443 15.674C43.3603 15.914 44.0263 16.154 44.5423 16.394C45.0583 16.634 45.5023 16.994 45.8743 17.474C46.2463 17.954 46.4323 18.584 46.4323 19.364C46.4323 20.036 46.2583 20.66 45.9102 21.236C45.5623 21.812 45.0523 22.274 44.3803 22.622C43.7083 22.958 42.9103 23.126 41.9863 23.126ZM47.969 17.978C47.969 16.97 48.167 16.076 48.563 15.296C48.971 14.516 49.517 13.916 50.201 13.496C50.897 13.076 51.671 12.866 52.523 12.866C53.267 12.866 53.915 13.016 54.467 13.316C55.031 13.616 55.481 13.994 55.817 14.45V13.028H58.355V23H55.817V21.542C55.493 22.01 55.043 22.4 54.467 22.712C53.903 23.012 53.249 23.162 52.505 23.162C51.665 23.162 50.897 22.946 50.201 22.514C49.517 22.082 48.971 21.476 48.563 20.696C48.167 19.904 47.969 18.998 47.969 17.978ZM55.817 18.014C55.817 17.402 55.697 16.88 55.457 16.448C55.217 16.004 54.893 15.668 54.485 15.44C54.077 15.2 53.639 15.08 53.171 15.08C52.703 15.08 52.271 15.194 51.875 15.422C51.479 15.65 51.155 15.986 50.903 16.43C50.663 16.862 50.543 17.378 50.543 17.978C50.543 18.578 50.663 19.106 50.903 19.562C51.155 20.006 51.479 20.348 51.875 20.588C52.283 20.828 52.715 20.948 53.171 20.948C53.639 20.948 54.077 20.834 54.485 20.606C54.893 20.366 55.217 20.03 55.457 19.598C55.697 19.154 55.817 18.626 55.817 18.014ZM63.3362 14.468C63.6602 14.012 64.1042 13.634 64.6682 13.334C65.2442 13.022 65.8982 12.866 66.6302 12.866C67.4822 12.866 68.2502 13.076 68.9342 13.496C69.6302 13.916 70.1762 14.516 70.5722 15.296C70.9802 16.064 71.1842 16.958 71.1842 17.978C71.1842 18.998 70.9802 19.904 70.5722 20.696C70.1762 21.476 69.6302 22.082 68.9342 22.514C68.2502 22.946 67.4822 23.162 66.6302 23.162C65.8982 23.162 65.2502 23.012 64.6862 22.712C64.1342 22.412 63.6842 22.034 63.3362 21.578V27.752H60.8162V13.028H63.3362V14.468ZM68.6102 17.978C68.6102 17.378 68.4842 16.862 68.2322 16.43C67.9922 15.986 67.6682 15.65 67.2602 15.422C66.8642 15.194 66.4322 15.08 65.9642 15.08C65.5082 15.08 65.0762 15.2 64.6682 15.44C64.2722 15.668 63.9482 16.004 63.6962 16.448C63.4562 16.892 63.3362 17.414 63.3362 18.014C63.3362 18.614 63.4562 19.136 63.6962 19.58C63.9482 20.024 64.2722 20.366 64.6682 20.606C65.0762 20.834 65.5082 20.948 65.9642 20.948C66.4322 20.948 66.8642 20.828 67.2602 20.588C67.6682 20.348 67.9922 20.006 68.2322 19.562C68.4842 19.118 68.6102 18.59 68.6102 17.978ZM75.9494 15.098V19.922C75.9494 20.258 76.0274 20.504 76.1834 20.66C76.3514 20.804 76.6274 20.876 77.0114 20.876H78.1814V23H76.5974C74.4734 23 73.4114 21.968 73.4114 19.904V15.098H72.2234V13.028H73.4114V10.562H75.9494V13.028H78.1814V15.098H75.9494ZM79.346 17.978C79.346 16.97 79.544 16.076 79.94 15.296C80.348 14.516 80.894 13.916 81.578 13.496C82.274 13.076 83.048 12.866 83.9 12.866C84.644 12.866 85.292 13.016 85.844 13.316C86.408 13.616 86.858 13.994 87.194 14.45V13.028H89.732V23H87.194V21.542C86.87 22.01 86.42 22.4 85.844 22.712C85.28 23.012 84.626 23.162 83.882 23.162C83.042 23.162 82.274 22.946 81.578 22.514C80.894 22.082 80.348 21.476 79.94 20.696C79.544 19.904 79.346 18.998 79.346 17.978ZM87.194 18.014C87.194 17.402 87.074 16.88 86.834 16.448C86.594 16.004 86.27 15.668 85.862 15.44C85.454 15.2 85.016 15.08 84.548 15.08C84.08 15.08 83.648 15.194 83.252 15.422C82.856 15.65 82.532 15.986 82.28 16.43C82.04 16.862 81.92 17.378 81.92 17.978C81.92 18.578 82.04 19.106 82.28 19.562C82.532 20.006 82.856 20.348 83.252 20.588C83.66 20.828 84.092 20.948 84.548 20.948C85.016 20.948 85.454 20.834 85.862 20.606C86.27 20.366 86.594 20.03 86.834 19.598C87.074 19.154 87.194 18.626 87.194 18.014ZM100.82 23.126C99.9442 23.126 99.1522 22.976 98.4442 22.676C97.7482 22.376 97.1962 21.944 96.7882 21.38C96.3802 20.816 96.1702 20.15 96.1582 19.382H98.8582C98.8942 19.898 99.0742 20.306 99.3982 20.606C99.7342 20.906 100.19 21.056 100.766 21.056C101.354 21.056 101.816 20.918 102.152 20.642C102.488 20.354 102.656 19.982 102.656 19.526C102.656 19.154 102.542 18.848 102.314 18.608C102.086 18.368 101.798 18.182 101.45 18.05C101.114 17.906 100.646 17.75 100.046 17.582C99.2302 17.342 98.5642 17.108 98.0482 16.88C97.5442 16.64 97.1062 16.286 96.7342 15.818C96.3742 15.338 96.1942 14.702 96.1942 13.91C96.1942 13.166 96.3802 12.518 96.7522 11.966C97.1242 11.414 97.6462 10.994 98.3182 10.706C98.9902 10.406 99.7582 10.256 100.622 10.256C101.918 10.256 102.968 10.574 103.772 11.21C104.588 11.834 105.038 12.71 105.122 13.838H102.35C102.326 13.406 102.14 13.052 101.792 12.776C101.456 12.488 101.006 12.344 100.442 12.344C99.9502 12.344 99.5542 12.47 99.2542 12.722C98.9662 12.974 98.8222 13.34 98.8222 13.82C98.8222 14.156 98.9302 14.438 99.1462 14.666C99.3742 14.882 99.6502 15.062 99.9742 15.206C100.31 15.338 100.778 15.494 101.378 15.674C102.194 15.914 102.86 16.154 103.376 16.394C103.892 16.634 104.336 16.994 104.708 17.474C105.08 17.954 105.266 18.584 105.266 19.364C105.266 20.036 105.092 20.66 104.744 21.236C104.396 21.812 103.886 22.274 103.214 22.622C102.542 22.958 101.744 23.126 100.82 23.126ZM108.729 11.84C108.285 11.84 107.913 11.702 107.613 11.426C107.325 11.138 107.181 10.784 107.181 10.364C107.181 9.944 107.325 9.596 107.613 9.32C107.913 9.032 108.285 8.888 108.729 8.888C109.173 8.888 109.539 9.032 109.827 9.32C110.127 9.596 110.277 9.944 110.277 10.364C110.277 10.784 110.127 11.138 109.827 11.426C109.539 11.702 109.173 11.84 108.729 11.84ZM109.971 13.028V23H107.451V13.028H109.971ZM117.987 12.884C119.175 12.884 120.135 13.262 120.867 14.018C121.599 14.762 121.965 15.806 121.965 17.15V23H119.445V17.492C119.445 16.7 119.247 16.094 118.851 15.674C118.455 15.242 117.915 15.026 117.231 15.026C116.535 15.026 115.983 15.242 115.575 15.674C115.179 16.094 114.981 16.7 114.981 17.492V23H112.461V13.028H114.981V14.27C115.317 13.838 115.743 13.502 116.259 13.262C116.787 13.01 117.363 12.884 117.987 12.884ZM133.631 17.798C133.631 18.158 133.607 18.482 133.559 18.77H126.269C126.329 19.49 126.581 20.054 127.025 20.462C127.469 20.87 128.015 21.074 128.663 21.074C129.599 21.074 130.265 20.672 130.661 19.868H133.379C133.091 20.828 132.539 21.62 131.723 22.244C130.907 22.856 129.905 23.162 128.717 23.162C127.757 23.162 126.893 22.952 126.125 22.532C125.369 22.1 124.775 21.494 124.343 20.714C123.923 19.934 123.713 19.034 123.713 18.014C123.713 16.982 123.923 16.076 124.343 15.296C124.763 14.516 125.351 13.916 126.107 13.496C126.863 13.076 127.733 12.866 128.717 12.866C129.665 12.866 130.511 13.07 131.255 13.478C132.011 13.886 132.593 14.468 133.001 15.224C133.421 15.968 133.631 16.826 133.631 17.798ZM131.021 17.078C131.009 16.43 130.775 15.914 130.319 15.53C129.863 15.134 129.305 14.936 128.645 14.936C128.021 14.936 127.493 15.128 127.061 15.512C126.641 15.884 126.383 16.406 126.287 17.078H131.021ZM137.991 14.576C138.315 14.048 138.735 13.634 139.251 13.334C139.779 13.034 140.379 12.884 141.051 12.884V15.53H140.385C139.593 15.53 138.993 15.716 138.585 16.088C138.189 16.46 137.991 17.108 137.991 18.032V23H135.471V13.028H137.991V14.576ZM146.654 12.866C147.398 12.866 148.052 13.016 148.616 13.316C149.18 13.604 149.624 13.982 149.948 14.45V13.028H152.486V23.072C152.486 23.996 152.3 24.818 151.928 25.538C151.556 26.27 150.998 26.846 150.254 27.266C149.51 27.698 148.61 27.914 147.554 27.914C146.138 27.914 144.974 27.584 144.062 26.924C143.162 26.264 142.652 25.364 142.532 24.224H145.034C145.166 24.68 145.448 25.04 145.88 25.304C146.324 25.58 146.858 25.718 147.482 25.718C148.214 25.718 148.808 25.496 149.264 25.052C149.72 24.62 149.948 23.96 149.948 23.072V21.524C149.624 21.992 149.174 22.382 148.598 22.694C148.034 23.006 147.386 23.162 146.654 23.162C145.814 23.162 145.046 22.946 144.35 22.514C143.654 22.082 143.102 21.476 142.694 20.696C142.298 19.904 142.1 18.998 142.1 17.978C142.1 16.97 142.298 16.076 142.694 15.296C143.102 14.516 143.648 13.916 144.332 13.496C145.028 13.076 145.802 12.866 146.654 12.866ZM149.948 18.014C149.948 17.402 149.828 16.88 149.588 16.448C149.348 16.004 149.024 15.668 148.616 15.44C148.208 15.2 147.77 15.08 147.302 15.08C146.834 15.08 146.402 15.194 146.006 15.422C145.61 15.65 145.286 15.986 145.034 16.43C144.794 16.862 144.674 17.378 144.674 17.978C144.674 18.578 144.794 19.106 145.034 19.562C145.286 20.006 145.61 20.348 146.006 20.588C146.414 20.828 146.846 20.948 147.302 20.948C147.77 20.948 148.208 20.834 148.616 20.606C149.024 20.366 149.348 20.03 149.588 19.598C149.828 19.154 149.948 18.626 149.948 18.014ZM156.225 11.84C155.781 11.84 155.409 11.702 155.109 11.426C154.821 11.138 154.677 10.784 154.677 10.364C154.677 9.944 154.821 9.596 155.109 9.32C155.409 9.032 155.781 8.888 156.225 8.888C156.669 8.888 157.035 9.032 157.323 9.32C157.623 9.596 157.773 9.944 157.773 10.364C157.773 10.784 157.623 11.138 157.323 11.426C157.035 11.702 156.669 11.84 156.225 11.84ZM157.467 13.028V23H154.947V13.028H157.467Z"
        fill="white" />
    <path
        d="M16.4062 0C13.2417 -3.77363e-08 10.1483 0.938383 7.51713 2.69649C4.88594 4.45459 2.83518 6.95345 1.62418 9.87706C0.413176 12.8007 0.096322 16.0177 0.713685 19.1214C1.33105 22.2251 2.8549 25.0761 5.09254 27.3137C7.33018 29.5513 10.1811 31.0752 13.2848 31.6926C16.3885 32.3099 19.6056 31.9931 22.5292 30.7821C25.4528 29.5711 27.9517 27.5203 29.7098 24.8891C31.4679 22.2579 32.4062 19.1645 32.4062 16L24.4062 16C24.4062 17.5823 23.9371 19.129 23.058 20.4446C22.179 21.7602 20.9295 22.7855 19.4677 23.391C18.0059 23.9965 16.3974 24.155 14.8455 23.8463C13.2937 23.5376 11.8682 22.7757 10.7494 21.6569C9.63057 20.538 8.86865 19.1126 8.55997 17.5607C8.25129 16.0089 8.40971 14.4003 9.01521 12.9385C9.62072 11.4767 10.6461 10.2273 11.9617 9.34824C13.2773 8.46919 14.824 8 16.4062 8V0Z"
        fill="white" />
    <path
        d="M16.4062 0C14.3051 -2.5056e-08 12.2245 0.413852 10.2833 1.21793C8.3421 2.022 6.57828 3.20055 5.09254 4.68629C3.6068 6.17203 2.42825 7.93586 1.62418 9.87707C0.820102 11.8183 0.40625 13.8989 0.40625 16H8.40625C8.40625 14.9494 8.61318 13.9091 9.01521 12.9385C9.41725 11.9679 10.0065 11.086 10.7494 10.3431C11.4923 9.60028 12.3742 9.011 13.3448 8.60896C14.3154 8.20693 15.3557 8 16.4062 8V0Z"
        fill="#5CE1E6" />
    <circle cx="16.4062" cy="16" r="5" fill="#5CE1E6" />
    <path
        d="M21.4062 16C21.4062 15.3434 21.2769 14.6932 21.0256 14.0866C20.7744 13.48 20.4061 12.9288 19.9418 12.4645C19.4775 12.0002 18.9263 11.6319 18.3197 11.3806C17.713 11.1293 17.0629 11 16.4062 11C15.7496 11 15.0995 11.1293 14.4928 11.3806C13.8862 11.6319 13.335 12.0002 12.8707 12.4645C12.4064 12.9288 12.0381 13.48 11.7869 14.0866C11.5356 14.6932 11.4062 15.3434 11.4063 16L16.4062 16H21.4062Z"
        fill="white" />
</svg>
    