<svg width="487" height="473" viewBox="0 0 487 473" fill="none" xmlns="http://www.w3.org/2000/svg">
    <path
        d="M50.544 100.884C25.4181 99.0093 6.41529 74.8718 8.10443 47.2192C10.0047 19.3322 31.5412 -1.75885 56.6671 0.115905C81.5819 2.22501 100.585 26.1282 98.8956 54.0152C97.2064 81.6678 75.4588 102.759 50.544 100.884Z"
        fill="url(#paint0_radial_0_1)" />
    <g filter="url(#filter0_b_0_1)">
        <rect width="164.423" height="262.337" rx="20"
            transform="matrix(0.840838 0.541288 -0.840838 0.541288 268.411 222)"
            fill="url(#paint1_linear_0_1)" />
        <rect x="-2.98023e-08" y="0.541288" width="163.423" height="261.337" rx="19.5"
            transform="matrix(0.840838 0.541288 -0.840838 0.541288 268.866 222.248)"
            stroke="url(#paint2_linear_0_1)" />
    </g>
    <g filter="url(#filter1_d_0_1)">
        <rect x="-2.05613e-08" y="0.373447" width="163.733" height="261.877" rx="13.4535"
            transform="matrix(0.840838 0.541288 -0.840838 0.541288 285.061 140.171)"
            fill="url(#paint3_linear_0_1)" stroke="url(#paint4_linear_0_1)" stroke-width="0.689923" />
    </g>
    <g filter="url(#filter2_d_0_1)">
        <g filter="url(#filter3_b_0_1)">
            <rect width="164.423" height="262.567" rx="13.7985"
                transform="matrix(0.840838 0.541288 -0.840838 0.541288 261.959 48)"
                fill="url(#paint5_linear_0_1)" />
            <rect x="-2.05613e-08" y="0.373447" width="163.733" height="261.877" rx="13.4535"
                transform="matrix(0.840838 0.541288 -0.840838 0.541288 262.273 48.1713)"
                stroke="url(#paint6_linear_0_1)" stroke-width="0.689923" />
        </g>
        <g filter="url(#filter4_b_0_1)">
            <path
                d="M121.563 138.38L259.816 227.38L202.641 264.186C191.702 271.228 186.233 274.749 179.436 274.749C172.64 274.749 167.17 271.228 156.232 264.186L64.3878 205.062C53.4491 198.02 47.9797 194.499 47.9797 190.124C47.9797 185.749 53.4491 182.228 64.3878 175.186L121.563 138.38Z"
                fill="url(#paint7_linear_0_1)" />
        </g>
        <path
            d="M318.533 124.376C318.025 124.049 317.653 123.697 317.416 123.321C317.186 122.949 317.117 122.582 317.207 122.219C317.298 121.856 317.562 121.528 318.001 121.237L319.567 122.245C319.289 122.452 319.156 122.671 319.17 122.904C319.191 123.142 319.369 123.368 319.703 123.583C320.044 123.803 320.392 123.924 320.747 123.946C321.109 123.964 321.422 123.888 321.687 123.718C321.903 123.579 322.014 123.422 322.021 123.247C322.028 123.072 321.969 122.895 321.843 122.716C321.732 122.537 321.551 122.304 321.3 122.017C320.966 121.623 320.716 121.286 320.549 121.009C320.395 120.731 320.347 120.435 320.402 120.121C320.472 119.808 320.737 119.503 321.196 119.207C321.628 118.929 322.111 118.757 322.647 118.689C323.183 118.622 323.73 118.66 324.287 118.804C324.851 118.943 325.383 119.173 325.884 119.496C326.636 119.98 327.061 120.491 327.158 121.029C327.27 121.567 327.023 122.062 326.417 122.514L324.809 121.479C325.046 121.309 325.143 121.107 325.101 120.874C325.073 120.641 324.896 120.419 324.569 120.209C324.283 120.025 323.98 119.924 323.66 119.906C323.347 119.893 323.051 119.976 322.773 120.155C322.578 120.28 322.477 120.426 322.47 120.592C322.477 120.758 322.533 120.928 322.637 121.103C322.755 121.277 322.936 121.511 323.18 121.802C323.514 122.196 323.761 122.534 323.921 122.817C324.081 123.099 324.13 123.399 324.068 123.718C324.005 124.036 323.747 124.34 323.295 124.632C322.905 124.883 322.442 125.051 321.906 125.136C321.37 125.221 320.806 125.203 320.214 125.082C319.63 124.957 319.069 124.721 318.533 124.376ZM324.99 124.688C325.575 124.312 326.209 124.052 326.891 123.908C327.58 123.769 328.245 123.749 328.885 123.848C329.533 123.951 330.103 124.162 330.598 124.48C331.029 124.758 331.318 125.056 331.464 125.374C331.618 125.696 331.659 126.006 331.59 126.301L332.415 125.77L333.887 126.718L328.102 130.442L326.63 129.494L327.476 128.95C327.016 129.004 326.529 128.981 326.014 128.883C325.512 128.784 325.046 128.596 324.614 128.318C324.127 128.004 323.807 127.637 323.654 127.216C323.508 126.799 323.542 126.369 323.758 125.925C323.988 125.481 324.399 125.069 324.99 124.688ZM329.522 127.632C329.877 127.404 330.11 127.164 330.222 126.913C330.34 126.658 330.347 126.411 330.243 126.174C330.145 125.932 329.961 125.723 329.689 125.548C329.418 125.374 329.101 125.255 328.739 125.192C328.377 125.129 327.994 125.134 327.59 125.206C327.201 125.277 326.832 125.425 326.484 125.649C326.135 125.873 325.899 126.115 325.773 126.375C325.662 126.635 325.652 126.884 325.742 127.121C325.84 127.363 326.021 127.57 326.285 127.74C326.557 127.915 326.877 128.036 327.246 128.103C327.622 128.166 328.005 128.161 328.394 128.089C328.791 128.013 329.167 127.861 329.522 127.632ZM335.941 129.116C336.394 129.067 336.871 129.091 337.372 129.19C337.887 129.289 338.357 129.475 338.781 129.748C339.276 130.066 339.599 130.431 339.753 130.844C339.913 131.26 339.881 131.688 339.659 132.128C339.45 132.567 339.049 132.977 338.458 133.358C337.866 133.739 337.222 134.001 336.526 134.144C335.844 134.288 335.175 134.31 334.521 134.211C333.874 134.117 333.303 133.911 332.809 133.593C332.384 133.32 332.095 133.022 331.942 132.699C331.796 132.381 331.754 132.072 331.817 131.771L328.235 134.077L326.773 133.136L335.315 127.637L336.777 128.578L335.941 129.116ZM336.965 132.396C337.313 132.172 337.539 131.933 337.643 131.677C337.762 131.422 337.769 131.175 337.664 130.938C337.567 130.705 337.382 130.501 337.111 130.326C336.846 130.156 336.526 130.039 336.15 129.977C335.788 129.914 335.405 129.918 335.001 129.99C334.605 130.066 334.232 130.216 333.884 130.44C333.536 130.664 333.303 130.904 333.185 131.16C333.073 131.42 333.063 131.668 333.153 131.906C333.258 132.143 333.442 132.347 333.707 132.517C333.978 132.692 334.298 132.809 334.667 132.867C335.043 132.93 335.43 132.923 335.826 132.847C336.23 132.775 336.61 132.625 336.965 132.396ZM342.893 134.062L340.094 135.863C339.899 135.989 339.802 136.11 339.802 136.226C339.816 136.343 339.934 136.473 340.157 136.616L340.836 137.053L339.604 137.846L338.685 137.255C337.453 136.462 337.435 135.68 338.633 134.909L341.421 133.114L340.731 132.67L341.932 131.897L342.621 132.341L344.052 131.42L345.524 132.368L344.094 133.289L345.389 134.122L344.188 134.895L342.893 134.062ZM343.192 136.406C343.777 136.029 344.411 135.769 345.093 135.626C345.782 135.487 346.447 135.467 347.087 135.565C347.735 135.668 348.306 135.879 348.8 136.197C349.231 136.475 349.52 136.773 349.667 137.091C349.82 137.414 349.861 137.723 349.792 138.019L350.617 137.488L352.089 138.436L346.304 142.16L344.832 141.212L345.678 140.667C345.218 140.721 344.731 140.699 344.216 140.6C343.715 140.502 343.248 140.313 342.817 140.036C342.329 139.722 342.009 139.354 341.856 138.933C341.71 138.516 341.745 138.086 341.96 137.643C342.19 137.199 342.601 136.787 343.192 136.406ZM347.724 139.35C348.079 139.121 348.313 138.882 348.424 138.631C348.542 138.375 348.549 138.129 348.445 137.891C348.347 137.649 348.163 137.441 347.891 137.266C347.62 137.091 347.303 136.973 346.941 136.91C346.579 136.847 346.196 136.852 345.793 136.923C345.403 136.995 345.034 137.143 344.686 137.367C344.338 137.591 344.101 137.833 343.976 138.093C343.864 138.353 343.854 138.602 343.944 138.839C344.042 139.081 344.223 139.287 344.487 139.457C344.759 139.632 345.079 139.753 345.448 139.82C345.824 139.883 346.207 139.879 346.597 139.807C346.993 139.731 347.369 139.578 347.724 139.35Z"
            fill="white" />
        <g filter="url(#filter5_d_0_1)">
            <path
                d="M76.9449 183.626C76.6201 183.417 76.3834 183.193 76.2349 182.954C76.091 182.712 76.0492 182.476 76.1096 182.246C76.1699 182.015 76.3393 181.811 76.6177 181.632L77.467 182.178C77.2768 182.325 77.1863 182.487 77.1955 182.667C77.2095 182.849 77.3487 183.025 77.6132 183.196C77.887 183.372 78.1655 183.467 78.4486 183.482C78.7363 183.494 78.9846 183.433 79.1934 183.299C79.3559 183.194 79.4394 183.078 79.4441 182.949C79.4533 182.824 79.4139 182.697 79.3257 182.568C79.2422 182.443 79.1076 182.278 78.922 182.075C78.6899 181.818 78.5159 181.599 78.3999 181.416C78.2931 181.234 78.2606 181.04 78.3024 180.834C78.3442 180.628 78.5159 180.428 78.8175 180.233C79.096 180.054 79.4092 179.942 79.7573 179.897C80.1054 179.852 80.4604 179.875 80.8224 179.964C81.1844 180.054 81.5301 180.205 81.8596 180.417C82.3284 180.719 82.5929 181.042 82.6532 181.385C82.7229 181.729 82.5697 182.042 82.1938 182.326L81.3167 181.762C81.4791 181.639 81.5464 181.488 81.5185 181.309C81.4907 181.13 81.3515 180.959 81.1009 180.798C80.8735 180.652 80.6298 180.569 80.3699 180.552C80.11 180.534 79.871 180.595 79.6529 180.735C79.5044 180.831 79.4255 180.938 79.4162 181.058C79.4162 181.177 79.458 181.3 79.5415 181.425C79.6251 181.551 79.755 181.712 79.9314 181.909C80.1634 182.172 80.3351 182.396 80.4465 182.582C80.5625 182.77 80.5973 182.968 80.5509 183.178C80.5138 183.387 80.3421 183.59 80.0358 183.787C79.7898 183.945 79.4905 184.051 79.1378 184.105C78.7897 184.162 78.4207 184.152 78.0309 184.074C77.6503 183.996 77.2884 183.847 76.9449 183.626ZM84.2022 186.962L82.1765 185.658L80.8399 186.07L80.0115 185.537L86.59 183.534L87.5089 184.126L84.3972 188.36L83.5618 187.823L84.2022 186.962ZM84.6269 186.402L86.0888 184.448L83.0467 185.385L84.6269 186.402ZM92.6273 189.285C92.3814 189.443 92.0913 189.555 91.7572 189.621C91.423 189.687 91.0587 189.682 90.6642 189.607C90.2744 189.53 89.8799 189.362 89.4808 189.105L88.6037 188.541L86.6406 189.805L85.847 189.294L90.6851 186.179L92.3558 187.255C92.7271 187.494 92.9754 187.737 93.1007 187.985C93.2353 188.233 93.2562 188.468 93.1634 188.689C93.0752 188.913 92.8965 189.111 92.6273 189.285ZM90.1282 188.689C90.4299 188.883 90.7222 188.984 91.0053 188.993C91.2931 188.999 91.5622 188.922 91.8129 188.76C92.3419 188.42 92.3071 188.057 91.7084 187.671L90.8313 187.107L89.2511 188.124L90.1282 188.689ZM98.647 191.305L97.9996 191.721L96.7117 190.892L92.521 193.59L91.7274 193.079L95.9182 190.381L94.6233 189.548L95.2707 189.131L98.647 191.305ZM99.214 196.626L97.1883 195.322L95.8517 195.734L95.0233 195.201L101.602 193.198L102.521 193.789L99.4089 198.024L98.5736 197.486L99.214 196.626ZM99.6387 196.066L101.101 194.112L98.0584 195.049L99.6387 196.066ZM104.909 201.627C104.584 201.418 104.347 201.194 104.199 200.955C104.055 200.713 104.013 200.477 104.073 200.247C104.134 200.017 104.303 199.812 104.581 199.633L105.431 200.18C105.24 200.326 105.15 200.489 105.159 200.668C105.173 200.851 105.312 201.027 105.577 201.197C105.851 201.373 106.129 201.469 106.412 201.484C106.7 201.496 106.948 201.435 107.157 201.3C107.32 201.196 107.403 201.079 107.408 200.951C107.417 200.825 107.378 200.698 107.289 200.57C107.206 200.444 107.071 200.28 106.886 200.077C106.654 199.82 106.48 199.6 106.364 199.418C106.257 199.236 106.224 199.042 106.266 198.835C106.308 198.629 106.48 198.429 106.781 198.235C107.06 198.056 107.373 197.944 107.721 197.899C108.069 197.854 108.424 197.876 108.786 197.966C109.148 198.056 109.494 198.207 109.823 198.419C110.292 198.72 110.557 199.043 110.617 199.387C110.687 199.73 110.533 200.044 110.157 200.328L109.28 199.763C109.443 199.641 109.51 199.49 109.482 199.31C109.454 199.131 109.315 198.961 109.065 198.8C108.837 198.653 108.594 198.571 108.334 198.553C108.074 198.535 107.835 198.596 107.617 198.737C107.468 198.832 107.389 198.94 107.38 199.06C107.38 199.179 107.422 199.302 107.505 199.427C107.589 199.552 107.719 199.714 107.895 199.911C108.127 200.174 108.299 200.398 108.41 200.583C108.526 200.771 108.561 200.97 108.515 201.179C108.477 201.388 108.306 201.591 107.999 201.789C107.754 201.947 107.454 202.053 107.101 202.107C106.753 202.164 106.384 202.153 105.995 202.075C105.614 201.998 105.252 201.848 104.909 201.627ZM113.892 201.119L109.054 204.233L108.261 203.722L113.099 200.608L113.892 201.119ZM114.767 207.911L113.974 207.4L115.199 203.537L111.586 205.863L110.792 205.352L115.637 202.233L116.431 202.744L115.213 206.602L118.819 204.281L119.612 204.792L114.767 207.911ZM121.497 206.839L120.077 207.753L121.747 208.828L121.1 209.245L119.429 208.17L117.946 209.124L119.826 210.334L119.179 210.751L116.505 209.03L121.351 205.911L124.024 207.632L123.376 208.049L121.497 206.839ZM123.365 213.446L124.187 211.483L123.581 211.093L121.646 212.339L120.852 211.828L125.69 208.714L127.361 209.789C127.732 210.028 127.981 210.272 128.106 210.52C128.236 210.771 128.254 211.007 128.162 211.228C128.073 211.452 127.895 211.651 127.626 211.824C127.31 212.027 126.93 212.152 126.484 212.2C126.048 212.248 125.593 212.179 125.12 211.994L124.312 214.056L123.365 213.446ZM124.215 210.686L125.092 211.25C125.389 211.441 125.686 211.537 125.983 211.537C126.284 211.54 126.561 211.461 126.811 211.299C127.062 211.138 127.182 210.965 127.173 210.78C127.169 210.591 127.015 210.4 126.714 210.206L125.837 209.641L124.215 210.686ZM132.894 215.144C133.01 214.908 133.017 214.679 132.915 214.458C132.818 214.234 132.623 214.028 132.33 213.84C132.01 213.634 131.653 213.496 131.258 213.427C130.864 213.359 130.462 213.363 130.054 213.441C129.65 213.521 129.274 213.674 128.926 213.898C128.578 214.122 128.339 214.365 128.209 214.628C128.089 214.891 128.082 215.15 128.188 215.404C128.295 215.658 128.509 215.888 128.829 216.094C129.26 216.372 129.731 216.52 130.242 216.537C130.752 216.555 131.244 216.451 131.718 216.224L129.901 215.054L130.534 214.646L133.201 216.363L132.581 216.762C132.154 216.971 131.674 217.107 131.14 217.169C130.611 217.235 130.077 217.217 129.539 217.116C129.01 217.014 128.534 216.827 128.112 216.555C127.657 216.263 127.346 215.928 127.179 215.552C127.017 215.172 127.012 214.79 127.165 214.404C127.323 214.022 127.638 213.678 128.112 213.374C128.585 213.069 129.119 212.866 129.713 212.764C130.312 212.666 130.903 212.67 131.488 212.778C132.082 212.885 132.604 213.084 133.054 213.374C133.569 213.705 133.899 214.082 134.043 214.503C134.196 214.924 134.131 215.342 133.848 215.758L132.894 215.144ZM137.659 216.418L132.821 219.533L132.027 219.022L136.865 215.908L137.659 216.418Z"
                fill="white" />
        </g>
        <path fill-rule="evenodd" clip-rule="evenodd"
            d="M298.53 201.186L343.51 172.23C342.626 169.951 341.478 167.708 340.07 165.52C339.017 163.883 337.828 162.291 336.509 160.75C335.148 159.16 333.65 157.625 332.024 156.15C330.497 154.765 328.857 153.434 327.111 152.163C322.904 149.099 318.081 146.38 312.742 144.083C300.541 138.835 286.195 136.034 271.52 136.034C256.845 136.034 242.499 138.835 230.298 144.083C218.096 149.332 208.586 156.792 202.97 165.52C197.7 173.71 196.081 182.672 198.268 191.402L228.988 211.178L245.287 200.686C240.098 197.346 236.565 193.091 235.134 188.458C233.702 183.825 234.437 179.023 237.245 174.659C240.053 170.295 244.808 166.565 250.909 163.941C257.01 161.317 264.182 159.916 271.52 159.916C278.858 159.916 286.03 161.317 292.131 163.941C294.162 164.814 296.043 165.81 297.753 166.911C300.86 168.911 303.402 171.259 305.246 173.848C305.437 174.116 305.62 174.386 305.795 174.659C307.55 177.387 308.495 180.285 308.608 183.207C308.615 183.404 308.619 183.601 308.619 183.799C308.619 185.355 308.383 186.916 307.906 188.458C307.459 189.906 306.806 191.316 305.962 192.674C305.907 192.762 305.852 192.85 305.795 192.938C303.94 195.822 301.215 198.458 297.753 200.686L298.53 201.186ZM255.123 194.353C246.068 188.524 246.068 179.073 255.123 173.244C264.178 167.415 278.86 167.415 287.915 173.244C296.97 179.073 296.97 188.524 287.915 194.353C283.418 197.248 277.535 198.705 271.642 198.725L271.519 198.725L271.405 198.725C265.509 198.706 259.622 197.249 255.123 194.353Z"
            fill="url(#paint8_linear_0_1)" />
    </g>
    <path
        d="M370.519 438.922C353.676 437.66 340.938 421.409 342.07 402.791C343.344 384.016 357.78 369.816 374.623 371.078C391.324 372.498 404.062 388.591 402.93 407.367C401.798 425.984 387.22 440.184 370.519 438.922Z"
        fill="url(#paint9_radial_0_1)" />
    <path
        d="M77.558 472.963C69.5508 472.369 63.495 464.722 64.0333 455.961C64.6389 447.125 71.5021 440.443 79.5093 441.037C87.4492 441.705 93.505 449.278 92.9667 458.114C92.4284 466.875 85.4979 473.557 77.558 472.963Z"
        fill="url(#paint10_radial_0_1)" />
    <defs>
        <filter id="filter0_b_0_1" x="48.6787" y="219.342" width="357.134" height="236.317"
            filterUnits="userSpaceOnUse" color-interpolation-filters="sRGB">
            <feFlood flood-opacity="0" result="BackgroundImageFix" />
            <feGaussianBlur in="BackgroundImageFix" stdDeviation="4.5" />
            <feComposite in2="SourceAlpha" operator="in" result="effect1_backgroundBlur_0_1" />
            <feBlend mode="normal" in="SourceGraphic" in2="effect1_backgroundBlur_0_1"
                result="shape" />
        </filter>
        <filter id="filter1_d_0_1" x="0.7677" y="83.3752" width="485.436" height="362.374"
            filterUnits="userSpaceOnUse" color-interpolation-filters="sRGB">
            <feFlood flood-opacity="0" result="BackgroundImageFix" />
            <feColorMatrix in="SourceAlpha" type="matrix"
                values="0 0 0 0 0 0 0 0 0 0 0 0 0 0 0 0 0 0 127 0" result="hardAlpha" />
            <feOffset dy="9" />
            <feGaussianBlur stdDeviation="35" />
            <feComposite in2="hardAlpha" operator="out" />
            <feColorMatrix type="matrix" values="0 0 0 0 0 0 0 0 0 0 0 0 0 0 0 0 0 0 0.25 0" />
            <feBlend mode="normal" in2="BackgroundImageFix" result="effect1_dropShadow_0_1" />
            <feBlend mode="normal" in="SourceGraphic" in2="effect1_dropShadow_0_1" result="shape" />
        </filter>
        <filter id="filter2_d_0_1" x="11.9797" y="34.3752" width="425.436" height="302.374"
            filterUnits="userSpaceOnUse" color-interpolation-filters="sRGB">
            <feFlood flood-opacity="0" result="BackgroundImageFix" />
            <feColorMatrix in="SourceAlpha" type="matrix"
                values="0 0 0 0 0 0 0 0 0 0 0 0 0 0 0 0 0 0 127 0" result="hardAlpha" />
            <feOffset dx="4" dy="22" />
            <feGaussianBlur stdDeviation="20" />
            <feComposite in2="hardAlpha" operator="out" />
            <feColorMatrix type="matrix" values="0 0 0 0 0 0 0 0 0 0 0 0 0 0 0 0 0 0 0.25 0" />
            <feBlend mode="normal" in2="BackgroundImageFix" result="effect1_dropShadow_0_1" />
            <feBlend mode="normal" in="SourceGraphic" in2="effect1_dropShadow_0_1" result="shape" />
        </filter>
        <filter id="filter3_b_0_1" x="40.9799" y="45.3752" width="359.436" height="236.374"
            filterUnits="userSpaceOnUse" color-interpolation-filters="sRGB">
            <feFlood flood-opacity="0" result="BackgroundImageFix" />
            <feGaussianBlur in="BackgroundImageFix" stdDeviation="3.5" />
            <feComposite in2="SourceAlpha" operator="in" result="effect1_backgroundBlur_0_1" />
            <feBlend mode="normal" in="SourceGraphic" in2="effect1_backgroundBlur_0_1"
                result="shape" />
        </filter>
        <filter id="filter4_b_0_1" x="40.9797" y="131.38" width="225.836" height="150.369"
            filterUnits="userSpaceOnUse" color-interpolation-filters="sRGB">
            <feFlood flood-opacity="0" result="BackgroundImageFix" />
            <feGaussianBlur in="BackgroundImageFix" stdDeviation="3.5" />
            <feComposite in2="SourceAlpha" operator="in" result="effect1_backgroundBlur_0_1" />
            <feBlend mode="normal" in="SourceGraphic" in2="effect1_backgroundBlur_0_1"
                result="shape" />
        </filter>
        <filter id="filter5_d_0_1" x="74.2324" y="179.337" width="64.4891" height="42.2272"
            filterUnits="userSpaceOnUse" color-interpolation-filters="sRGB">
            <feFlood flood-opacity="0" result="BackgroundImageFix" />
            <feColorMatrix in="SourceAlpha" type="matrix"
                values="0 0 0 0 0 0 0 0 0 0 0 0 0 0 0 0 0 0 127 0" result="hardAlpha" />
            <feOffset dy="1" />
            <feGaussianBlur stdDeviation="0.5" />
            <feComposite in2="hardAlpha" operator="out" />
            <feColorMatrix type="matrix" values="0 0 0 0 0 0 0 0 0 0 0 0 0 0 0 0 0 0 0.15 0" />
            <feBlend mode="normal" in2="BackgroundImageFix" result="effect1_dropShadow_0_1" />
            <feBlend mode="normal" in="SourceGraphic" in2="effect1_dropShadow_0_1" result="shape" />
        </filter>
        <radialGradient id="paint0_radial_0_1" cx="0" cy="0" r="1" gradientUnits="userSpaceOnUse"
            gradientTransform="translate(72.7525 36.0489) rotate(93.4883) scale(64.9406 58.561)">
            <stop offset="0.00887753" stop-color="#DEF9FA" />
            <stop offset="0.1723" stop-color="#BEF3F5" />
            <stop offset="0.4204" stop-color="#9DEDF0" />
            <stop offset="0.5512" stop-color="#7DE7EB" />
            <stop offset="0.7154" stop-color="#5CE1E6" />
            <stop offset="1" stop-color="#33BBCF" />
        </radialGradient>
        <linearGradient id="paint1_linear_0_1" x1="-51.6905" y1="-182.935" x2="72.951" y2="273.275"
            gradientUnits="userSpaceOnUse">
            <stop stop-color="white" stop-opacity="0.7" />
            <stop offset="0.667914" stop-color="#F9F9F9" stop-opacity="0.175336" />
            <stop offset="1" stop-color="#F9F9F9" stop-opacity="0.1" />
            <stop offset="1" stop-color="white" stop-opacity="0.2" />
        </linearGradient>
        <linearGradient id="paint2_linear_0_1" x1="-3.23303" y1="-8.5391e-07" x2="161.652"
            y2="262.337" gradientUnits="userSpaceOnUse">
            <stop stop-color="white" />
            <stop offset="1" stop-color="white" stop-opacity="0.1" />
        </linearGradient>
        <linearGradient id="paint3_linear_0_1" x1="0" y1="0" x2="164.423" y2="262.567"
            gradientUnits="userSpaceOnUse">
            <stop stop-color="white" stop-opacity="0.4" />
            <stop offset="1" stop-color="white" stop-opacity="0.1" />
        </linearGradient>
        <linearGradient id="paint4_linear_0_1" x1="-1.11978e-06" y1="8.77537" x2="154.724"
            y2="262.337" gradientUnits="userSpaceOnUse">
            <stop stop-color="white" />
            <stop offset="1" stop-color="white" stop-opacity="0.1" />
        </linearGradient>
        <linearGradient id="paint5_linear_0_1" x1="0" y1="0" x2="164.423" y2="262.567"
            gradientUnits="userSpaceOnUse">
            <stop stop-color="white" stop-opacity="0.4" />
            <stop offset="1" stop-color="white" stop-opacity="0.1" />
        </linearGradient>
        <linearGradient id="paint6_linear_0_1" x1="-1.11978e-06" y1="8.77537" x2="154.724"
            y2="262.337" gradientUnits="userSpaceOnUse">
            <stop stop-color="white" />
            <stop offset="1" stop-color="white" stop-opacity="0.1" />
        </linearGradient>
        <linearGradient id="paint7_linear_0_1" x1="102.617" y1="-41.5" x2="280.04" y2="284.577"
            gradientUnits="userSpaceOnUse">
            <stop stop-color="#5AE5EA" />
            <stop offset="0.29487" stop-color="#5AE5EA" stop-opacity="0" />
            <stop offset="1" stop-color="#5AE5EA" />
        </linearGradient>
        <linearGradient id="paint8_linear_0_1" x1="291.045" y1="98.9335" x2="288.941" y2="206.035"
            gradientUnits="userSpaceOnUse">
            <stop stop-color="white" />
            <stop offset="1" stop-color="white" stop-opacity="0" />
        </linearGradient>
        <radialGradient id="paint9_radial_0_1" cx="0" cy="0" r="1" gradientUnits="userSpaceOnUse"
            gradientTransform="translate(385.406 395.271) rotate(93.4731) scale(43.7217 39.2558)">
            <stop offset="0.00887753" stop-color="#DEF9FA" />
            <stop offset="0.1723" stop-color="#BEF3F5" />
            <stop offset="0.4204" stop-color="#9DEDF0" />
            <stop offset="0.5512" stop-color="#7DE7EB" />
            <stop offset="0.7154" stop-color="#5CE1E6" />
            <stop offset="1" stop-color="#33BBCF" />
        </radialGradient>
        <radialGradient id="paint10_radial_0_1" cx="0" cy="0" r="1" gradientUnits="userSpaceOnUse"
            gradientTransform="translate(84.6354 452.421) rotate(93.5086) scale(20.5757 18.6619)">
            <stop offset="0.00887753" stop-color="#DEF9FA" />
            <stop offset="0.1723" stop-color="#BEF3F5" />
            <stop offset="0.4204" stop-color="#9DEDF0" />
            <stop offset="0.5512" stop-color="#7DE7EB" />
            <stop offset="0.7154" stop-color="#5CE1E6" />
            <stop offset="1" stop-color="#33BBCF" />
        </radialGradient>
    </defs>
</svg>
    